<?xml version="1.0" encoding="UTF-8" standalone="no"?><!DOCTYPE svg PUBLIC "-//W3C//DTD SVG 1.1//EN" "http://www.w3.org/Graphics/SVG/1.1/DTD/svg11.dtd"><svg width="100%" height="100%" viewBox="0 0 2000 501" version="1.1" xmlns="http://www.w3.org/2000/svg" xmlns:xlink="http://www.w3.org/1999/xlink" xml:space="preserve" style="fill-rule:evenodd;clip-rule:evenodd;stroke-linejoin:round;stroke-miterlimit:1.41421;"><path d="M263.944,316.2l-197.5,-316.1l-54.5,0c-10.9,0 -15.1,7.6 -9.4,16.8l132.6,216.4l0.7,1.1l89.8,143.8l38.3,-62ZM294.444,266.9c5.7,-9.2 5.7,-24.3 0,-33.6l-134,-216.5c-5.7,-9.2 -19.3,-16.8 -30.1,-16.8l-55,0l193,308.9l26.1,-42ZM182.244,323.1l-110.6,177l58.8,0c10.8,0 24.4,-7.5 30.1,-16.8l53.5,-86.5c0.2,-0.3 0.6,-1 1.5,-2.4l5.6,-9.1l-38.9,-62.2ZM135.144,266.9l-132.6,216.5c-5.7,9.3 -1.4,16.8 9.4,16.8l50.7,0l115.1,-184.2l-38.6,-61.9c-0.5,4.8 -1.8,9.3 -4,12.8Z" style="fill:#757575;fill-rule:nonzero;"/><text x="390.244px" y="312.907px" style="font-family:'NotoSans-Bold', 'Noto Sans', sans-serif;font-weight:700;font-size:205px;fill:#757575;">De<tspan x="661.108px " y="312.907px ">v</tspan>Fest Florida</text></svg>