<?xml version="1.0" encoding="UTF-8" standalone="no"?><!DOCTYPE svg PUBLIC "-//W3C//DTD SVG 1.1//EN" "http://www.w3.org/Graphics/SVG/1.1/DTD/svg11.dtd"><svg width="100%" height="100%" viewBox="0 0 800 252" version="1.1" xmlns="http://www.w3.org/2000/svg" xmlns:xlink="http://www.w3.org/1999/xlink" xml:space="preserve" style="fill-rule:evenodd;clip-rule:evenodd;stroke-linejoin:round;stroke-miterlimit:1.41421;"><g><path d="M187.65,152.206l-79,-126.4l-21.8,0c-4.4,0 -6,3 -3.8,6.7l53,86.5l0.3,0.4l35.9,57.5l15.4,-24.7Z" style="fill:#fff;fill-rule:nonzero;"/><path d="M199.85,132.506c2.3,-3.7 2.3,-9.7 0,-13.4l-53.6,-86.6c-2.3,-3.7 -7.7,-6.7 -12,-6.7l-22,0l77.2,123.5l10.4,-16.8Z" style="fill:#fff;fill-rule:nonzero;"/><path d="M154.95,155.006l-44.2,70.8l23.5,0c4.3,0 9.8,-3 12,-6.7l21.4,-34.6c0.1,-0.1 0.2,-0.4 0.6,-1l2.2,-3.6l-15.5,-24.9Z" style="fill:#fff;fill-rule:nonzero;"/><path d="M136.15,132.506l-53,86.5c-2.3,3.7 -0.6,6.7 3.8,6.7l20.3,0l46,-73.6l-15.4,-24.8c-0.3,1.9 -0.9,3.7 -1.7,5.2Z" style="fill:#fff;fill-rule:nonzero;"/></g><g><text x="237.529px" y="182.233px" style="font-family:'ProductSans-Regular', 'Product Sans', sans-serif;font-size:64px;fill:#fff;">20<tspan x="311.001px 335.897px " y="182.233px 182.233px ">16</tspan></text><text x="232.156px" y="114.261px" style="font-family:'NotoSans-Bold', 'Noto Sans', sans-serif;font-weight:700;font-size:72px;fill:#fff;stroke-width:3.5px;stroke:#fff;">De<tspan x="327.289px " y="114.261px ">v</tspan>Fest</text><text x="535.24px" y="114.261px" style="font-family:'NotoSans-Bold', 'Noto Sans', sans-serif;font-weight:700;font-size:72px;fill:#fff;stroke-width:3.5px;stroke:#fff;">Florida</text></g></svg>